<svg xmlns="http://www.w3.org/2000/svg" xmlns:xlink="http://www.w3.org/1999/xlink" width="500" zoomAndPan="magnify" viewBox="0 0 375 374.999991" height="500" preserveAspectRatio="xMidYMid meet" version="1.0"><defs><g/><clipPath id="8c83438c19"><path d="M 65 189 L 301 189 L 301 296 L 65 296 Z M 65 189 " clip-rule="nonzero"/></clipPath><clipPath id="1aaeaa3834"><path d="M 64.058594 293.882812 L 65.476562 176.140625 L 300.210938 178.976562 L 298.789062 296.714844 Z M 64.058594 293.882812 " clip-rule="nonzero"/></clipPath><clipPath id="cd2ed5aa48"><path d="M 64.058594 293.882812 L 66.917969 56.902344 L 301.648438 59.734375 L 298.789062 296.714844 Z M 64.058594 293.882812 " clip-rule="nonzero"/></clipPath><clipPath id="f7b06a0912"><path d="M 64 49 L 300 49 L 300 157 L 64 157 Z M 64 49 " clip-rule="nonzero"/></clipPath><clipPath id="59c66a2e13"><path d="M 296.890625 47.070312 L 299.492188 164.789062 L 64.800781 169.980469 L 62.199219 52.257812 Z M 296.890625 47.070312 " clip-rule="nonzero"/></clipPath><clipPath id="bbc8e16073"><path d="M 296.890625 47.070312 L 302.128906 284.011719 L 67.4375 289.199219 L 62.199219 52.257812 Z M 296.890625 47.070312 " clip-rule="nonzero"/></clipPath><clipPath id="e2e6d76b21"><path d="M 117.214844 154.675781 L 252.246094 154.675781 L 252.246094 229.628906 L 117.214844 229.628906 Z M 117.214844 154.675781 " clip-rule="nonzero"/></clipPath><clipPath id="8e977ca405"><path d="M 120 112.972656 L 250 112.972656 L 250 227 L 120 227 Z M 120 112.972656 " clip-rule="nonzero"/></clipPath><clipPath id="0601cf4896"><path d="M 113.808594 154.105469 L 255.738281 154.105469 L 255.738281 162.332031 L 113.808594 162.332031 Z M 113.808594 154.105469 " clip-rule="nonzero"/></clipPath><clipPath id="31380040a1"><path d="M 113.808594 135.101562 L 255.738281 135.101562 L 255.738281 206.871094 L 113.808594 206.871094 Z M 113.808594 135.101562 " clip-rule="nonzero"/></clipPath></defs><g clip-path="url(#8c83438c19)"><g clip-path="url(#1aaeaa3834)"><g clip-path="url(#cd2ed5aa48)"><path fill="#00c9b7" d="M 181.847656 267.316406 C 226.929688 267.859375 264.804688 235.132812 272.054688 191.992188 L 300.226562 192.332031 C 292.59375 250.914062 242.007812 295.964844 181.511719 295.234375 C 121.015625 294.503906 71.535156 248.246094 65.3125 189.496094 L 93.488281 189.835938 C 99.691406 233.140625 136.769531 266.773438 181.847656 267.316406 " fill-opacity="1" fill-rule="nonzero"/></g></g></g><g fill="#00c9b7" fill-opacity="1"><g transform="translate(43.754723, 231.810525)"><g><path d="M 0.796875 1.5625 L 15.796875 -6.078125 L 19.03125 0.28125 C 19.382812 0.96875 19.5625 1.675781 19.5625 2.40625 C 19.570312 3.132812 19.445312 3.832031 19.1875 4.5 C 18.9375 5.164062 18.570312 5.769531 18.09375 6.3125 C 17.625 6.863281 17.085938 7.296875 16.484375 7.609375 C 15.847656 7.921875 15.171875 8.113281 14.453125 8.1875 C 13.742188 8.269531 13.050781 8.222656 12.375 8.046875 C 11.707031 7.878906 11.085938 7.578125 10.515625 7.140625 C 9.941406 6.710938 9.472656 6.148438 9.109375 5.453125 L 7.3125 1.921875 L 2.28125 4.484375 Z M 9.875 0.625 L 11.59375 4 C 11.863281 4.53125 12.304688 4.863281 12.921875 5 C 13.535156 5.132812 14.21875 5.015625 14.96875 4.640625 C 15.34375 4.441406 15.648438 4.207031 15.890625 3.9375 C 16.140625 3.675781 16.328125 3.398438 16.453125 3.109375 C 16.578125 2.828125 16.628906 2.53125 16.609375 2.21875 C 16.597656 1.914062 16.523438 1.640625 16.390625 1.390625 L 14.734375 -1.859375 Z M 9.875 0.625 "/></g></g></g><g fill="#00c9b7" fill-opacity="1"><g transform="translate(56.126786, 254.160557)"><g><path d="M 17.390625 -4.859375 L 19.125 -2.546875 L 9.5 12.65625 L 7.484375 9.96875 L 9.90625 6.203125 L 6.375 1.515625 L 2.09375 2.78125 L 0.078125 0.09375 Z M 11.390625 4.34375 L 15.28125 -1.46875 L 8.546875 0.546875 Z M 11.390625 4.34375 "/></g></g></g><g fill="#00c9b7" fill-opacity="1"><g transform="translate(72.91536, 274.888557)"><g><path d="M 1.265625 1.203125 L 12.84375 -11.015625 L 15.234375 -8.765625 L 5.640625 1.359375 L 11.859375 7.265625 L 9.875 9.359375 Z M 1.265625 1.203125 "/></g></g></g><g fill="#00c9b7" fill-opacity="1"><g transform="translate(91.234367, 290.91402)"><g><path d="M 1.421875 1.015625 L 11.21875 -12.671875 L 13.890625 -10.765625 L 4.09375 2.921875 Z M 1.421875 1.015625 "/></g></g></g><g fill="#00c9b7" fill-opacity="1"><g transform="translate(105.586499, 300.616183)"><g><path d="M 19.1875 -5.75 L 14.40625 -8.25 L 7.9375 4.140625 L 5.0625 2.640625 L 11.53125 -9.75 L 6.765625 -12.234375 L 8.078125 -14.765625 L 20.5 -8.28125 Z M 19.1875 -5.75 "/></g></g></g><g fill="#00c9b7" fill-opacity="1"><g transform="translate(128.571075, 311.67877)"><g><path d="M 8.5 2.78125 C 7.320312 2.414062 6.320312 1.851562 5.5 1.09375 C 4.6875 0.332031 4.054688 -0.53125 3.609375 -1.5 C 3.160156 -2.476562 2.898438 -3.515625 2.828125 -4.609375 C 2.753906 -5.710938 2.878906 -6.785156 3.203125 -7.828125 C 3.535156 -8.890625 4.050781 -9.847656 4.75 -10.703125 C 5.457031 -11.554688 6.28125 -12.25 7.21875 -12.78125 C 8.164062 -13.320312 9.191406 -13.664062 10.296875 -13.8125 C 11.398438 -13.957031 12.515625 -13.859375 13.640625 -13.515625 C 14.804688 -13.148438 15.789062 -12.578125 16.59375 -11.796875 C 17.40625 -11.015625 18.03125 -10.132812 18.46875 -9.15625 C 18.90625 -8.175781 19.160156 -7.132812 19.234375 -6.03125 C 19.304688 -4.9375 19.179688 -3.890625 18.859375 -2.890625 C 18.523438 -1.816406 18.007812 -0.851562 17.3125 0 C 16.625 0.851562 15.816406 1.546875 14.890625 2.078125 C 13.960938 2.609375 12.945312 2.945312 11.84375 3.09375 C 10.75 3.238281 9.632812 3.132812 8.5 2.78125 Z M 6.359375 -6.84375 C 6.148438 -6.144531 6.050781 -5.4375 6.0625 -4.71875 C 6.070312 -4 6.195312 -3.328125 6.4375 -2.703125 C 6.6875 -2.078125 7.050781 -1.523438 7.53125 -1.046875 C 8.019531 -0.566406 8.632812 -0.210938 9.375 0.015625 C 10.132812 0.253906 10.847656 0.304688 11.515625 0.171875 C 12.191406 0.046875 12.8125 -0.207031 13.375 -0.59375 C 13.9375 -0.976562 14.414062 -1.460938 14.8125 -2.046875 C 15.21875 -2.628906 15.523438 -3.253906 15.734375 -3.921875 C 15.953125 -4.597656 16.050781 -5.296875 16.03125 -6.015625 C 16.019531 -6.742188 15.890625 -7.414062 15.640625 -8.03125 C 15.398438 -8.65625 15.035156 -9.203125 14.546875 -9.671875 C 14.054688 -10.148438 13.445312 -10.503906 12.71875 -10.734375 C 11.96875 -10.960938 11.25 -11.015625 10.5625 -10.890625 C 9.882812 -10.765625 9.265625 -10.507812 8.703125 -10.125 C 8.148438 -9.75 7.671875 -9.269531 7.265625 -8.6875 C 6.867188 -8.113281 6.566406 -7.5 6.359375 -6.84375 Z M 6.359375 -6.84375 "/></g></g></g><g fill="#00c9b7" fill-opacity="1"><g transform="translate(156.394303, 319.266464)"><g><path d="M 6.203125 -10.15625 L 5 0.5625 L 1.734375 0.1875 L 3.609375 -16.53125 L 6.140625 -16.234375 L 13.625 -4.296875 L 14.859375 -15.25 L 18.109375 -14.890625 L 16.234375 1.8125 L 13.59375 1.515625 Z M 6.203125 -10.15625 "/></g></g></g><g fill="#00c9b7" fill-opacity="1"><g transform="translate(185.316334, 321.447008)"><g><path d="M 8.921875 -0.578125 C 7.703125 -0.484375 6.566406 -0.640625 5.515625 -1.046875 C 4.472656 -1.453125 3.5625 -2.019531 2.78125 -2.75 C 2.007812 -3.488281 1.382812 -4.351562 0.90625 -5.34375 C 0.4375 -6.34375 0.15625 -7.378906 0.0625 -8.453125 C -0.0195312 -9.566406 0.101562 -10.648438 0.4375 -11.703125 C 0.769531 -12.753906 1.269531 -13.703125 1.9375 -14.546875 C 2.613281 -15.398438 3.4375 -16.101562 4.40625 -16.65625 C 5.382812 -17.207031 6.457031 -17.53125 7.625 -17.625 C 8.84375 -17.71875 9.972656 -17.550781 11.015625 -17.125 C 12.054688 -16.707031 12.960938 -16.125 13.734375 -15.375 C 14.503906 -14.625 15.128906 -13.753906 15.609375 -12.765625 C 16.085938 -11.773438 16.367188 -10.753906 16.453125 -9.703125 C 16.535156 -8.585938 16.410156 -7.503906 16.078125 -6.453125 C 15.753906 -5.398438 15.257812 -4.457031 14.59375 -3.625 C 13.9375 -2.789062 13.125 -2.097656 12.15625 -1.546875 C 11.1875 -0.992188 10.109375 -0.671875 8.921875 -0.578125 Z M 3.359375 -8.703125 C 3.421875 -7.984375 3.585938 -7.289062 3.859375 -6.625 C 4.140625 -5.96875 4.507812 -5.394531 4.96875 -4.90625 C 5.425781 -4.414062 5.96875 -4.035156 6.59375 -3.765625 C 7.226562 -3.492188 7.929688 -3.390625 8.703125 -3.453125 C 9.492188 -3.515625 10.179688 -3.734375 10.765625 -4.109375 C 11.347656 -4.492188 11.820312 -4.96875 12.1875 -5.53125 C 12.5625 -6.101562 12.828125 -6.734375 12.984375 -7.421875 C 13.148438 -8.109375 13.203125 -8.796875 13.140625 -9.484375 C 13.085938 -10.203125 12.921875 -10.894531 12.640625 -11.5625 C 12.359375 -12.226562 11.988281 -12.800781 11.53125 -13.28125 C 11.082031 -13.757812 10.539062 -14.128906 9.90625 -14.390625 C 9.269531 -14.648438 8.570312 -14.75 7.8125 -14.6875 C 7.03125 -14.625 6.34375 -14.40625 5.75 -14.03125 C 5.164062 -13.664062 4.6875 -13.203125 4.3125 -12.640625 C 3.945312 -12.085938 3.679688 -11.460938 3.515625 -10.765625 C 3.359375 -10.078125 3.304688 -9.390625 3.359375 -8.703125 Z M 3.359375 -8.703125 "/></g></g></g><g fill="#00c9b7" fill-opacity="1"><g transform="translate(213.964942, 318.136221)"><g><path d="M 1.96875 -11.734375 L 4.84375 -1.34375 L 1.6875 -0.46875 L -2.796875 -16.6875 L -0.34375 -17.359375 L 11.046875 -9.0625 L 8.109375 -19.6875 L 11.25 -20.5625 L 15.734375 -4.359375 L 13.171875 -3.640625 Z M 1.96875 -11.734375 "/></g></g></g><g fill="#00c9b7" fill-opacity="1"><g transform="translate(241.225392, 309.30881)"><g/></g></g><g fill="#569d93" fill-opacity="1"><g transform="translate(255.858883, 302.354727)"><g><path d="M 3.484375 -16.765625 C 3.328125 -16.796875 3.070312 -16.8125 2.71875 -16.8125 C 2.375 -16.820312 1.976562 -16.796875 1.53125 -16.734375 C 1.082031 -16.671875 0.613281 -16.5625 0.125 -16.40625 C -0.351562 -16.257812 -0.804688 -16.050781 -1.234375 -15.78125 C -2.003906 -15.3125 -2.488281 -14.816406 -2.6875 -14.296875 C -2.882812 -13.785156 -2.828125 -13.273438 -2.515625 -12.765625 C -2.328125 -12.460938 -2.101562 -12.257812 -1.84375 -12.15625 C -1.582031 -12.050781 -1.273438 -12.007812 -0.921875 -12.03125 C -0.566406 -12.050781 -0.144531 -12.125 0.34375 -12.25 C 0.832031 -12.382812 1.382812 -12.554688 2 -12.765625 C 2.820312 -13.003906 3.582031 -13.191406 4.28125 -13.328125 C 4.976562 -13.460938 5.625 -13.492188 6.21875 -13.421875 C 6.820312 -13.347656 7.367188 -13.148438 7.859375 -12.828125 C 8.359375 -12.503906 8.8125 -12.015625 9.21875 -11.359375 C 9.695312 -10.585938 9.957031 -9.84375 10 -9.125 C 10.050781 -8.40625 9.929688 -7.722656 9.640625 -7.078125 C 9.359375 -6.441406 8.945312 -5.847656 8.40625 -5.296875 C 7.863281 -4.753906 7.238281 -4.265625 6.53125 -3.828125 C 5.46875 -3.160156 4.3125 -2.664062 3.0625 -2.34375 C 1.8125 -2.019531 0.585938 -1.890625 -0.609375 -1.953125 L -0.859375 -5.125 C -0.660156 -5.082031 -0.347656 -5.0625 0.078125 -5.0625 C 0.515625 -5.0625 1.007812 -5.09375 1.5625 -5.15625 C 2.125 -5.226562 2.703125 -5.359375 3.296875 -5.546875 C 3.898438 -5.742188 4.476562 -6.015625 5.03125 -6.359375 C 6.5625 -7.304688 7.023438 -8.269531 6.421875 -9.25 C 6.234375 -9.5625 5.984375 -9.769531 5.671875 -9.875 C 5.367188 -9.976562 5.003906 -10.007812 4.578125 -9.96875 C 4.160156 -9.9375 3.679688 -9.847656 3.140625 -9.703125 C 2.597656 -9.554688 2 -9.382812 1.34375 -9.1875 C 0.539062 -8.945312 -0.179688 -8.78125 -0.828125 -8.6875 C -1.472656 -8.59375 -2.054688 -8.59375 -2.578125 -8.6875 C -3.097656 -8.789062 -3.566406 -8.988281 -3.984375 -9.28125 C -4.398438 -9.582031 -4.773438 -10.003906 -5.109375 -10.546875 C -5.566406 -11.273438 -5.832031 -12.003906 -5.90625 -12.734375 C -5.988281 -13.472656 -5.90625 -14.175781 -5.65625 -14.84375 C -5.414062 -15.507812 -5.039062 -16.132812 -4.53125 -16.71875 C -4.019531 -17.3125 -3.398438 -17.832031 -2.671875 -18.28125 C -1.660156 -18.90625 -0.632812 -19.320312 0.40625 -19.53125 C 1.445312 -19.738281 2.410156 -19.820312 3.296875 -19.78125 Z M 3.484375 -16.765625 "/></g></g></g><g fill="#569d93" fill-opacity="1"><g transform="translate(276.978261, 288.325259)"><g><path d="M 0.609375 -23.15625 L 11.84375 -10.625 L 9.421875 -8.453125 L 4.625 -13.796875 L -1.046875 -8.703125 L 3.75 -3.359375 L 1.296875 -1.171875 L -9.9375 -13.703125 L -7.484375 -15.890625 L -2.953125 -10.828125 L 2.71875 -15.921875 L -1.8125 -20.984375 Z M 0.609375 -23.15625 "/></g></g></g><g fill="#569d93" fill-opacity="1"><g transform="translate(297.544507, 268.497533)"><g><path d="M 5.5 -7.03125 C 4.757812 -6.050781 3.890625 -5.304688 2.890625 -4.796875 C 1.898438 -4.296875 0.875 -4 -0.1875 -3.90625 C -1.257812 -3.820312 -2.320312 -3.929688 -3.375 -4.234375 C -4.4375 -4.535156 -5.398438 -5.015625 -6.265625 -5.671875 C -7.148438 -6.347656 -7.875 -7.160156 -8.4375 -8.109375 C -9 -9.066406 -9.367188 -10.078125 -9.546875 -11.140625 C -9.734375 -12.210938 -9.707031 -13.296875 -9.46875 -14.390625 C -9.238281 -15.484375 -8.765625 -16.492188 -8.046875 -17.421875 C -7.304688 -18.398438 -6.429688 -19.132812 -5.421875 -19.625 C -4.421875 -20.125 -3.382812 -20.410156 -2.3125 -20.484375 C -1.238281 -20.554688 -0.175781 -20.441406 0.875 -20.140625 C 1.9375 -19.835938 2.882812 -19.363281 3.71875 -18.71875 C 4.613281 -18.039062 5.34375 -17.226562 5.90625 -16.28125 C 6.46875 -15.332031 6.84375 -14.332031 7.03125 -13.28125 C 7.21875 -12.238281 7.1875 -11.171875 6.9375 -10.078125 C 6.695312 -8.992188 6.21875 -7.976562 5.5 -7.03125 Z M -4.25 -8.3125 C -3.664062 -7.875 -3.035156 -7.535156 -2.359375 -7.296875 C -1.679688 -7.066406 -1.007812 -6.957031 -0.34375 -6.96875 C 0.320312 -6.988281 0.960938 -7.144531 1.578125 -7.4375 C 2.203125 -7.726562 2.75 -8.179688 3.21875 -8.796875 C 3.695312 -9.429688 3.988281 -10.085938 4.09375 -10.765625 C 4.207031 -11.453125 4.175781 -12.125 4 -12.78125 C 3.820312 -13.4375 3.53125 -14.050781 3.125 -14.625 C 2.71875 -15.207031 2.238281 -15.707031 1.6875 -16.125 C 1.113281 -16.5625 0.488281 -16.894531 -0.1875 -17.125 C -0.875 -17.351562 -1.550781 -17.457031 -2.21875 -17.4375 C -2.882812 -17.425781 -3.523438 -17.269531 -4.140625 -16.96875 C -4.753906 -16.675781 -5.289062 -16.226562 -5.75 -15.625 C -6.226562 -15 -6.523438 -14.34375 -6.640625 -13.65625 C -6.753906 -12.96875 -6.722656 -12.296875 -6.546875 -11.640625 C -6.367188 -10.992188 -6.078125 -10.378906 -5.671875 -9.796875 C -5.273438 -9.222656 -4.800781 -8.726562 -4.25 -8.3125 Z M -4.25 -8.3125 "/></g></g></g><g fill="#569d93" fill-opacity="1"><g transform="translate(314.04626, 244.967312)"><g><path d="M 0.796875 -1.5625 L -14.203125 -9.203125 L -10.96875 -15.5625 C -10.613281 -16.25 -10.140625 -16.8125 -9.546875 -17.25 C -8.960938 -17.6875 -8.328125 -17.992188 -7.640625 -18.171875 C -6.960938 -18.347656 -6.257812 -18.40625 -5.53125 -18.34375 C -4.8125 -18.289062 -4.148438 -18.109375 -3.546875 -17.796875 C -2.910156 -17.484375 -2.347656 -17.054688 -1.859375 -16.515625 C -1.378906 -15.984375 -1.007812 -15.394531 -0.75 -14.75 C -0.5 -14.113281 -0.378906 -13.429688 -0.390625 -12.703125 C -0.398438 -11.984375 -0.585938 -11.273438 -0.953125 -10.578125 L -2.75 -7.046875 L 2.28125 -4.484375 Z M -5.3125 -8.34375 L -3.59375 -11.71875 C -3.320312 -12.25 -3.3125 -12.804688 -3.5625 -13.390625 C -3.8125 -13.972656 -4.3125 -14.453125 -5.0625 -14.828125 C -5.4375 -15.023438 -5.800781 -15.140625 -6.15625 -15.171875 C -6.519531 -15.210938 -6.851562 -15.195312 -7.15625 -15.125 C -7.457031 -15.0625 -7.722656 -14.929688 -7.953125 -14.734375 C -8.191406 -14.546875 -8.378906 -14.328125 -8.515625 -14.078125 L -10.171875 -10.828125 Z M -5.3125 -8.34375 "/></g></g></g><g clip-path="url(#f7b06a0912)"><g clip-path="url(#59c66a2e13)"><g clip-path="url(#bbc8e16073)"><path fill="#569d93" d="M 180.074219 77.644531 C 135.003906 78.640625 98.265625 112.644531 92.496094 156.007812 L 64.328125 156.628906 C 69.957031 97.824219 118.972656 51.070312 179.457031 49.734375 C 239.941406 48.394531 290.976562 92.9375 299.199219 151.4375 L 271.03125 152.058594 C 263.351562 108.996094 225.144531 76.648438 180.074219 77.644531 " fill-opacity="1" fill-rule="nonzero"/></g></g></g><g clip-path="url(#e2e6d76b21)"><path fill="#569d93" d="M 252.09375 229.628906 L 117.457031 229.628906 L 117.457031 154.777344 L 252.09375 154.777344 L 252.09375 229.628906 " fill-opacity="1" fill-rule="nonzero"/></g><g clip-path="url(#8e977ca405)"><path fill="#83cdb3" d="M 249.398438 209.238281 L 208.109375 209.238281 L 208.109375 226.933594 L 249.398438 226.933594 Z M 161.4375 209.238281 L 120.148438 209.238281 L 120.148438 226.933594 L 161.4375 226.933594 Z M 202.359375 205.324219 L 201.96875 205.324219 C 201.421875 205.324219 200.976562 204.878906 200.976562 204.332031 L 200.976562 203.941406 L 190.046875 203.941406 L 190.046875 204.332031 C 190.046875 204.878906 189.601562 205.324219 189.054688 205.324219 L 188.660156 205.324219 L 188.660156 221.105469 L 189.054688 221.105469 C 189.601562 221.105469 190.046875 221.550781 190.046875 222.097656 L 190.046875 222.488281 L 200.976562 222.488281 L 200.976562 222.097656 C 200.976562 221.550781 201.421875 221.105469 201.96875 221.105469 L 202.359375 221.105469 Z M 205.417969 177.863281 L 205.417969 226.933594 L 185.605469 226.933594 L 185.605469 177.863281 Z M 200.234375 204.722656 L 190.785156 204.722656 C 190.636719 205.390625 190.109375 205.914062 189.445312 206.066406 L 189.445312 220.363281 C 190.109375 220.511719 190.636719 221.039062 190.785156 221.703125 L 200.234375 221.703125 C 200.382812 221.039062 200.910156 220.511719 201.574219 220.363281 L 201.574219 206.066406 C 200.910156 205.914062 200.382812 205.390625 200.234375 204.722656 Z M 180.886719 205.324219 L 180.496094 205.324219 C 179.945312 205.324219 179.5 204.878906 179.5 204.332031 L 179.5 203.941406 L 168.574219 203.941406 L 168.574219 204.332031 C 168.574219 204.878906 168.128906 205.324219 167.582031 205.324219 L 167.1875 205.324219 L 167.1875 221.105469 L 167.582031 221.105469 C 168.128906 221.105469 168.574219 221.550781 168.574219 222.097656 L 168.574219 222.488281 L 179.5 222.488281 L 179.5 222.097656 C 179.5 221.550781 179.945312 221.105469 180.496094 221.105469 L 180.886719 221.105469 Z M 183.945312 177.863281 L 183.945312 226.933594 L 164.128906 226.933594 L 164.128906 177.863281 Z M 178.761719 204.722656 L 169.316406 204.722656 C 169.164062 205.390625 168.640625 205.914062 167.972656 206.066406 L 167.972656 220.363281 C 168.640625 220.511719 169.164062 221.039062 169.316406 221.703125 L 178.761719 221.703125 C 178.910156 221.039062 179.4375 220.511719 180.101562 220.363281 L 180.101562 206.066406 C 179.4375 205.914062 178.910156 205.390625 178.761719 204.722656 Z M 247.273438 148.800781 L 122.273438 148.800781 L 122.273438 112.972656 L 247.277344 112.972656 L 247.277344 148.796875 " fill-opacity="1" fill-rule="nonzero"/></g><path fill="#fef6e2" d="M 244.148438 128.101562 L 244.148438 120.203125 C 242 120.203125 240.257812 118.460938 240.257812 116.3125 L 129.289062 116.3125 C 129.289062 118.460938 127.546875 120.203125 125.398438 120.203125 L 125.398438 128.101562 C 127.546875 128.101562 129.289062 129.84375 129.289062 131.992188 L 240.257812 131.992188 C 240.257812 129.84375 241.996094 128.101562 244.148438 128.101562 Z M 202.359375 180.566406 L 188.660156 180.566406 L 188.660156 198.820312 L 202.359375 198.820312 Z M 180.886719 180.566406 L 167.1875 180.566406 L 167.1875 198.820312 L 180.886719 198.820312 Z M 249.398438 157.46875 L 208.109375 157.46875 L 208.109375 175.171875 L 249.398438 175.171875 Z M 249.398438 177.863281 L 208.109375 177.863281 L 208.109375 206.644531 L 249.398438 206.644531 Z M 205.417969 157.46875 L 164.128906 157.46875 L 164.128906 175.171875 L 205.417969 175.171875 Z M 161.4375 157.46875 L 120.148438 157.46875 L 120.148438 175.171875 L 161.4375 175.171875 Z M 161.4375 206.644531 L 120.148438 206.644531 L 120.148438 177.863281 L 161.4375 177.863281 L 161.4375 206.644531 " fill-opacity="1" fill-rule="nonzero"/><g clip-path="url(#0601cf4896)"><path fill="#00c9b7" d="M 176.605469 154.285156 L 161.289062 154.285156 C 161.289062 158.65625 164.832031 162.199219 169.203125 162.199219 C 172.894531 162.199219 175.988281 159.664062 176.859375 156.242188 C 177.734375 159.664062 180.828125 162.199219 184.519531 162.199219 C 188.886719 162.199219 192.433594 158.65625 192.433594 154.285156 Z M 200.347656 162.199219 C 204.714844 162.199219 208.257812 158.65625 208.257812 154.285156 L 192.433594 154.285156 C 192.433594 158.65625 195.976562 162.199219 200.347656 162.199219 Z M 216.171875 162.199219 C 220.542969 162.199219 224.085938 158.65625 224.085938 154.285156 L 208.257812 154.285156 C 208.257812 158.65625 211.800781 162.199219 216.171875 162.199219 Z M 239.910156 154.285156 C 239.910156 158.65625 243.453125 162.199219 247.824219 162.199219 C 252.195312 162.199219 255.738281 158.65625 255.738281 154.285156 Z M 231.996094 162.199219 C 236.367188 162.199219 239.910156 158.65625 239.910156 154.285156 L 224.085938 154.285156 C 224.085938 158.65625 227.628906 162.199219 231.996094 162.199219 Z M 153.375 162.199219 C 157.746094 162.199219 161.289062 158.65625 161.289062 154.285156 L 145.464844 154.285156 C 145.464844 158.65625 149.007812 162.199219 153.375 162.199219 Z M 137.550781 162.199219 C 141.921875 162.199219 145.464844 158.65625 145.464844 154.285156 L 129.636719 154.285156 C 129.636719 158.65625 133.179688 162.199219 137.550781 162.199219 Z M 113.808594 154.285156 L 129.636719 154.285156 C 129.636719 158.65625 126.09375 162.199219 121.722656 162.199219 C 117.351562 162.199219 113.808594 158.65625 113.808594 154.285156 " fill-opacity="1" fill-rule="nonzero"/></g><g clip-path="url(#31380040a1)"><path fill="#569d93" d="M 167.1875 187.613281 L 175.546875 180.566406 L 180.886719 180.566406 L 180.886719 184.875 L 167.1875 196.421875 Z M 255.738281 154.285156 L 113.808594 154.285156 L 122.273438 135.175781 L 247.277344 135.175781 Z M 210.5625 159.867188 L 208.109375 161.9375 L 208.109375 157.472656 L 208.925781 157.472656 C 209.324219 158.371094 209.878906 159.179688 210.5625 159.867188 Z M 144.59375 206.648438 L 161.4375 192.457031 L 161.4375 201.265625 L 155.046875 206.648438 Z M 205.417969 160.359375 L 205.417969 164.207031 L 192.402344 175.171875 L 181.949219 175.171875 L 197.832031 161.789062 C 198.621094 162.050781 199.46875 162.199219 200.347656 162.199219 C 202.273438 162.199219 204.046875 161.507812 205.417969 160.359375 Z M 134.449219 206.648438 L 120.148438 206.648438 L 120.148438 203.464844 L 150.53125 177.863281 L 161.4375 177.863281 L 161.4375 183.90625 Z M 188.417969 161.171875 L 171.800781 175.171875 L 164.128906 175.171875 L 164.128906 166.40625 L 169.125 162.195312 C 169.148438 162.195312 169.175781 162.199219 169.203125 162.199219 C 172.433594 162.199219 175.210938 160.253906 176.4375 157.472656 L 177.285156 157.472656 C 178.507812 160.253906 181.285156 162.199219 184.519531 162.199219 C 185.933594 162.199219 187.265625 161.824219 188.417969 161.171875 Z M 190.648438 159.292969 L 192.808594 157.472656 L 191.765625 157.472656 C 191.472656 158.128906 191.097656 158.742188 190.648438 159.292969 Z M 153.726562 175.171875 L 161.4375 168.675781 L 161.4375 175.171875 Z M 153.726562 175.171875 " fill-opacity="1" fill-rule="nonzero"/></g></svg>